<svg width="20" height="25" viewBox="0 0 20 25" fill="none" xmlns="http://www.w3.org/2000/svg">
<path d="M10.0002 0.896484C5.02031 0.896484 0.967773 4.97713 0.967773 9.99413C0.967773 17.1227 9.15114 24.4831 9.49939 24.7922C9.6429 24.9197 9.82154 24.9829 10.0002 24.9829C10.1788 24.9829 10.3575 24.9197 10.501 24.7932C10.8492 24.4831 19.0326 17.1227 19.0326 9.99413C19.0326 4.97713 14.9801 0.896484 10.0002 0.896484ZM10.0002 14.9469C7.23325 14.9469 4.98218 12.6958 4.98218 9.92889C4.98218 7.16197 7.23325 4.91089 10.0002 4.91089C12.7671 4.91089 15.0182 7.16197 15.0182 9.92889C15.0182 12.6958 12.7671 14.9469 10.0002 14.9469Z" fill="#795546"/>
</svg>
