<svg width="183" height="41" viewBox="0 0 183 41" fill="none" xmlns="http://www.w3.org/2000/svg">
<path d="M183.001 23.1517H179.959L170.805 9.30121V23.1517H167.763V4.57764H170.805L179.959 18.4014V4.57764H183.001V23.1517Z" fill="white"/>
<path d="M159.268 19.3622H151.502L150.168 23.1517H146.992L153.637 4.57764H157.16L163.805 23.1517H160.602L159.268 19.3622ZM158.414 16.8803L155.399 8.26043L152.356 16.8803H158.414Z" fill="white"/>
<path d="M134.157 4.60425C136.131 4.60425 137.857 4.98676 139.334 5.75178C140.828 6.49902 141.976 7.58428 142.776 9.00758C143.595 10.4131 144.004 12.0588 144.004 13.9447C144.004 15.8305 143.595 17.4673 142.776 18.855C141.976 20.2428 140.828 21.3102 139.334 22.0575C137.857 22.7869 136.131 23.1516 134.157 23.1516H128.099V4.60425H134.157ZM134.157 20.6698C136.327 20.6698 137.991 20.0826 139.147 18.9084C140.303 17.7342 140.882 16.0796 140.882 13.9447C140.882 11.7919 140.303 10.1106 139.147 8.90084C137.991 7.69103 136.327 7.08613 134.157 7.08613H131.141V20.6698H134.157Z" fill="white"/>
<path d="M119.604 19.3622H111.838L110.504 23.1517H107.328L113.973 4.57764H117.496L124.141 23.1517H120.938L119.604 19.3622ZM118.75 16.8803L115.734 8.26043L112.692 16.8803H118.75Z" fill="white"/>
<path d="M103.356 4.60425V23.1516H100.314V10.4487L94.6562 23.1516H92.5479L86.8636 10.4487V23.1516H83.8213V4.60425H87.1038L93.6154 19.1486L100.1 4.60425H103.356Z" fill="white"/>
<path d="M75.3297 19.3622H67.5638L66.2294 23.1517H63.0537L69.6987 4.57764H73.2214L79.8664 23.1517H76.664L75.3297 19.3622ZM74.4757 16.8803L71.4601 8.26043L68.4178 16.8803H74.4757Z" fill="white"/>
<path d="M55.8517 23.1516L51.5818 15.7327H49.2601V23.1516H46.2178V4.60425H52.6226C54.0459 4.60425 55.2468 4.85333 56.2254 5.35148C57.2217 5.84964 57.96 6.51681 58.4404 7.353C58.9385 8.18919 59.1876 9.12323 59.1876 10.1551C59.1876 11.3649 58.8318 12.468 58.1201 13.4643C57.4263 14.4428 56.3499 15.11 54.891 15.4658L59.4812 23.1516H55.8517ZM49.2601 13.3042H52.6226C53.7613 13.3042 54.6152 13.0195 55.1846 12.4502C55.7717 11.8809 56.0652 11.1158 56.0652 10.1551C56.0652 9.19439 55.7806 8.44716 55.2113 7.91342C54.6419 7.36189 53.7791 7.08613 52.6226 7.08613H49.2601V13.3042Z" fill="white"/>
<path d="M177.648 32.2613C177.648 31.8312 177.735 31.4549 177.91 31.1324C178.084 30.8047 178.322 30.5513 178.624 30.3721C178.931 30.1929 179.274 30.1033 179.653 30.1033C179.98 30.1033 180.285 30.1801 180.567 30.3337C180.848 30.4822 181.063 30.6793 181.212 30.925V28.698H181.918V34.3808H181.212V33.5898C181.073 33.8407 180.869 34.048 180.597 34.2119C180.326 34.3706 180.009 34.4499 179.645 34.4499C179.271 34.4499 178.931 34.3578 178.624 34.1735C178.322 33.9892 178.084 33.7306 177.91 33.3978C177.735 33.0651 177.648 32.6862 177.648 32.2613ZM181.212 32.269C181.212 31.9515 181.148 31.6751 181.02 31.4396C180.892 31.2041 180.718 31.0249 180.498 30.902C180.282 30.774 180.044 30.71 179.783 30.71C179.522 30.71 179.284 30.7715 179.069 30.8943C178.854 31.0172 178.683 31.1964 178.555 31.4319C178.427 31.6674 178.363 31.9439 178.363 32.2613C178.363 32.5838 178.427 32.8654 178.555 33.106C178.683 33.3415 178.854 33.5233 179.069 33.6513C179.284 33.7741 179.522 33.8356 179.783 33.8356C180.044 33.8356 180.282 33.7741 180.498 33.6513C180.718 33.5233 180.892 33.3415 181.02 33.106C181.148 32.8654 181.212 32.5864 181.212 32.269Z" fill="#FDEDDC"/>
<path d="M175.604 32.1153C175.604 32.2484 175.596 32.3892 175.581 32.5377H172.217C172.243 32.9524 172.384 33.2775 172.639 33.513C172.901 33.7433 173.215 33.8585 173.584 33.8585C173.886 33.8585 174.137 33.7894 174.337 33.6512C174.541 33.5078 174.685 33.3184 174.767 33.0829H175.519C175.407 33.4874 175.181 33.8176 174.844 34.0736C174.506 34.3244 174.086 34.4499 173.584 34.4499C173.185 34.4499 172.826 34.3603 172.509 34.1811C172.197 34.0019 171.951 33.7485 171.772 33.4208C171.593 33.088 171.503 32.7041 171.503 32.2689C171.503 31.8337 171.59 31.4523 171.764 31.1246C171.938 30.797 172.181 30.5461 172.494 30.3721C172.811 30.1929 173.175 30.1033 173.584 30.1033C173.983 30.1033 174.337 30.1903 174.644 30.3644C174.951 30.5384 175.187 30.7791 175.35 31.0862C175.519 31.3883 175.604 31.7313 175.604 32.1153ZM174.882 31.9694C174.882 31.7032 174.823 31.4753 174.705 31.2859C174.588 31.0914 174.426 30.9455 174.221 30.8482C174.022 30.7458 173.799 30.6946 173.553 30.6946C173.2 30.6946 172.898 30.8072 172.647 31.0325C172.401 31.2578 172.261 31.57 172.225 31.9694H174.882Z" fill="#FDEDDC"/>
<path d="M167.86 34.4499C167.537 34.4499 167.248 34.3961 166.992 34.2886C166.736 34.1759 166.534 34.0224 166.385 33.8278C166.237 33.6281 166.155 33.4003 166.14 33.1443H166.862C166.882 33.3542 166.979 33.5258 167.153 33.6589C167.333 33.792 167.565 33.8585 167.852 33.8585C168.118 33.8585 168.328 33.7997 168.482 33.6819C168.635 33.5642 168.712 33.4157 168.712 33.2365C168.712 33.0522 168.63 32.9165 168.467 32.8295C168.303 32.7373 168.049 32.6477 167.706 32.5607C167.394 32.4788 167.138 32.3969 166.938 32.315C166.744 32.2279 166.575 32.1025 166.431 31.9387C166.293 31.7697 166.224 31.5496 166.224 31.2782C166.224 31.0632 166.288 30.8661 166.416 30.6869C166.544 30.5077 166.726 30.3669 166.961 30.2645C167.197 30.157 167.466 30.1033 167.768 30.1033C168.234 30.1033 168.61 30.221 168.897 30.4565C169.183 30.692 169.337 31.0146 169.357 31.4241H168.659C168.643 31.204 168.554 31.0274 168.39 30.8943C168.231 30.7611 168.016 30.6946 167.745 30.6946C167.494 30.6946 167.294 30.7483 167.146 30.8559C166.997 30.9634 166.923 31.1042 166.923 31.2782C166.923 31.4165 166.966 31.5317 167.054 31.6238C167.146 31.7108 167.258 31.7825 167.391 31.8388C167.53 31.89 167.719 31.9489 167.96 32.0155C168.262 32.0974 168.507 32.1793 168.697 32.2612C168.886 32.338 169.048 32.4557 169.181 32.6145C169.319 32.7732 169.391 32.9805 169.396 33.2365C169.396 33.4669 169.332 33.6742 169.204 33.8585C169.076 34.0428 168.894 34.1887 168.659 34.2963C168.428 34.3987 168.162 34.4499 167.86 34.4499Z" fill="#FDEDDC"/>
<path d="M162.465 34.4499C162.143 34.4499 161.854 34.3961 161.598 34.2886C161.342 34.1759 161.139 34.0224 160.991 33.8278C160.842 33.6281 160.76 33.4003 160.745 33.1443H161.467C161.487 33.3542 161.585 33.5258 161.759 33.6589C161.938 33.792 162.171 33.8585 162.458 33.8585C162.724 33.8585 162.934 33.7997 163.087 33.6819C163.241 33.5642 163.318 33.4157 163.318 33.2365C163.318 33.0522 163.236 32.9165 163.072 32.8295C162.908 32.7373 162.655 32.6477 162.312 32.5607C161.999 32.4788 161.743 32.3969 161.544 32.315C161.349 32.2279 161.18 32.1025 161.037 31.9387C160.899 31.7697 160.83 31.5496 160.83 31.2782C160.83 31.0632 160.894 30.8661 161.022 30.6869C161.15 30.5077 161.331 30.3669 161.567 30.2645C161.802 30.157 162.071 30.1033 162.373 30.1033C162.839 30.1033 163.215 30.221 163.502 30.4565C163.789 30.692 163.942 31.0146 163.963 31.4241H163.264C163.249 31.204 163.159 31.0274 162.995 30.8943C162.836 30.7611 162.621 30.6946 162.35 30.6946C162.099 30.6946 161.9 30.7483 161.751 30.8559C161.603 30.9634 161.528 31.1042 161.528 31.2782C161.528 31.4165 161.572 31.5317 161.659 31.6238C161.751 31.7108 161.864 31.7825 161.997 31.8388C162.135 31.89 162.325 31.9489 162.565 32.0155C162.867 32.0974 163.113 32.1793 163.302 32.2612C163.492 32.338 163.653 32.4557 163.786 32.6145C163.924 32.7732 163.996 32.9805 164.001 33.2365C164.001 33.4669 163.937 33.6742 163.809 33.8585C163.681 34.0428 163.499 34.1887 163.264 34.2963C163.034 34.3987 162.767 34.4499 162.465 34.4499Z" fill="#FDEDDC"/>
<path d="M158.671 32.1153C158.671 32.2484 158.663 32.3892 158.648 32.5377H155.285C155.31 32.9524 155.451 33.2775 155.707 33.513C155.968 33.7433 156.283 33.8585 156.651 33.8585C156.954 33.8585 157.204 33.7894 157.404 33.6512C157.609 33.5078 157.752 33.3184 157.834 33.0829H158.587C158.474 33.4874 158.249 33.8176 157.911 34.0736C157.573 34.3244 157.153 34.4499 156.651 34.4499C156.252 34.4499 155.894 34.3603 155.576 34.1811C155.264 34.0019 155.018 33.7485 154.839 33.4208C154.66 33.088 154.57 32.7041 154.57 32.2689C154.57 31.8337 154.657 31.4523 154.831 31.1246C155.005 30.797 155.249 30.5461 155.561 30.3721C155.878 30.1929 156.242 30.1033 156.651 30.1033C157.051 30.1033 157.404 30.1903 157.711 30.3644C158.018 30.5384 158.254 30.7791 158.418 31.0862C158.587 31.3883 158.671 31.7313 158.671 32.1153ZM157.949 31.9694C157.949 31.7032 157.89 31.4753 157.773 31.2859C157.655 31.0914 157.494 30.9455 157.289 30.8482C157.089 30.7458 156.866 30.6946 156.621 30.6946C156.267 30.6946 155.965 30.8072 155.715 31.0325C155.469 31.2578 155.328 31.57 155.292 31.9694H157.949Z" fill="#FDEDDC"/>
<path d="M152.257 28.698V34.3808H151.559V28.698H152.257Z" fill="#FDEDDC"/>
<path d="M148.147 31.624C148.341 31.6547 148.518 31.7341 148.677 31.862C148.841 31.99 148.969 32.1487 149.061 32.3382C149.158 32.5276 149.207 32.7298 149.207 32.9448C149.207 33.2162 149.138 33.4619 148.999 33.6821C148.861 33.8971 148.659 34.0686 148.393 34.1966C148.132 34.3195 147.822 34.3809 147.463 34.3809H145.467V29.0283H147.387C147.75 29.0283 148.06 29.0898 148.316 29.2126C148.572 29.3304 148.764 29.4916 148.892 29.6964C149.02 29.9012 149.084 30.1316 149.084 30.3876C149.084 30.705 148.997 30.9687 148.823 31.1786C148.654 31.3834 148.429 31.5318 148.147 31.624ZM146.166 31.3398H147.341C147.668 31.3398 147.922 31.263 148.101 31.1095C148.28 30.9559 148.37 30.7434 148.37 30.4721C148.37 30.2007 148.28 29.9883 148.101 29.8347C147.922 29.6811 147.663 29.6043 147.325 29.6043H146.166V31.3398ZM147.402 33.8049C147.75 33.8049 148.021 33.723 148.216 33.5592C148.411 33.3954 148.508 33.1676 148.508 32.8757C148.508 32.5788 148.405 32.3459 148.201 32.1769C147.996 32.0028 147.722 31.9158 147.379 31.9158H146.166V33.8049H147.402Z" fill="#FDEDDC"/>
<path d="M139.953 30.1726L137.419 36.3623H136.697L137.526 34.3349L135.829 30.1726H136.605L137.926 33.5823L139.231 30.1726H139.953Z" fill="#FDEDDC"/>
<path d="M129.495 32.2612C129.495 31.8312 129.582 31.4549 129.756 31.1323C129.93 30.8047 130.168 30.5512 130.47 30.3721C130.778 30.1929 131.118 30.1033 131.492 30.1033C131.86 30.1033 132.18 30.1826 132.452 30.3413C132.723 30.5 132.925 30.6997 133.058 30.9403V30.1724H133.765V34.3807H133.058V33.5974C132.92 33.8432 132.713 34.048 132.436 34.2118C132.165 34.3705 131.848 34.4499 131.484 34.4499C131.11 34.4499 130.772 34.3577 130.47 34.1734C130.168 33.9891 129.93 33.7305 129.756 33.3978C129.582 33.065 129.495 32.6861 129.495 32.2612ZM133.058 32.2689C133.058 31.9515 132.994 31.675 132.866 31.4395C132.738 31.204 132.564 31.0248 132.344 30.9019C132.129 30.7739 131.891 30.7099 131.63 30.7099C131.369 30.7099 131.131 30.7714 130.916 30.8943C130.701 31.0171 130.529 31.1963 130.401 31.4318C130.273 31.6673 130.209 31.9438 130.209 32.2612C130.209 32.5837 130.273 32.8653 130.401 33.1059C130.529 33.3414 130.701 33.5232 130.916 33.6512C131.131 33.7741 131.369 33.8355 131.63 33.8355C131.891 33.8355 132.129 33.7741 132.344 33.6512C132.564 33.5232 132.738 33.3414 132.866 33.1059C132.994 32.8653 133.058 32.5863 133.058 32.2689Z" fill="#FDEDDC"/>
<path d="M126.43 30.7483V33.2287C126.43 33.4335 126.473 33.5794 126.56 33.6665C126.647 33.7484 126.798 33.7893 127.013 33.7893H127.528V34.3807H126.898C126.509 34.3807 126.217 34.2911 126.023 34.1119C125.828 33.9327 125.731 33.6383 125.731 33.2287V30.7483H125.186V30.1723H125.731V29.1125H126.43V30.1723H127.528V30.7483H126.43Z" fill="#FDEDDC"/>
<path d="M121.385 34.4347C121.032 34.4347 120.714 34.3733 120.433 34.2504C120.156 34.1224 119.939 33.9483 119.78 33.7282C119.621 33.5029 119.539 33.2444 119.534 32.9526H120.279C120.305 33.2034 120.407 33.4159 120.586 33.5899C120.771 33.7589 121.037 33.8434 121.385 33.8434C121.718 33.8434 121.979 33.7615 122.168 33.5976C122.363 33.4287 122.46 33.2137 122.46 32.9526C122.46 32.7478 122.404 32.5814 122.291 32.4534C122.178 32.3254 122.038 32.2281 121.869 32.1616C121.7 32.095 121.472 32.0233 121.185 31.9465C120.832 31.8544 120.548 31.7622 120.333 31.6701C120.123 31.5779 119.941 31.4346 119.788 31.24C119.639 31.0404 119.565 30.7741 119.565 30.4414C119.565 30.1495 119.639 29.891 119.788 29.6657C119.936 29.4405 120.143 29.2664 120.41 29.1435C120.681 29.0207 120.991 28.9592 121.339 28.9592C121.841 28.9592 122.25 29.0847 122.568 29.3355C122.89 29.5864 123.072 29.9192 123.113 30.3339H122.345C122.319 30.1291 122.212 29.9499 122.022 29.7963C121.833 29.6376 121.582 29.5582 121.27 29.5582C120.978 29.5582 120.74 29.635 120.556 29.7886C120.371 29.9371 120.279 30.147 120.279 30.4183C120.279 30.6129 120.333 30.7716 120.44 30.8945C120.553 31.0173 120.689 31.112 120.847 31.1786C121.011 31.24 121.239 31.3117 121.531 31.3936C121.884 31.4909 122.168 31.5882 122.383 31.6854C122.598 31.7776 122.783 31.9235 122.936 32.1232C123.09 32.3177 123.167 32.5839 123.167 32.9218C123.167 33.1829 123.097 33.4287 122.959 33.6591C122.821 33.8894 122.616 34.0763 122.345 34.2197C122.074 34.363 121.754 34.4347 121.385 34.4347Z" fill="#FDEDDC"/>
<path d="M114.075 33.4131L113.215 35.4789H112.746L113.307 33.4131H114.075Z" fill="#FDEDDC"/>
<path d="M106.52 32.2613C106.52 31.8312 106.607 31.4549 106.781 31.1324C106.955 30.8047 107.193 30.5513 107.495 30.3721C107.802 30.1929 108.145 30.1033 108.524 30.1033C108.852 30.1033 109.156 30.1801 109.438 30.3337C109.719 30.4822 109.934 30.6793 110.083 30.925V28.698H110.789V34.3808H110.083V33.5898C109.945 33.8407 109.74 34.048 109.468 34.2119C109.197 34.3706 108.88 34.4499 108.516 34.4499C108.142 34.4499 107.802 34.3578 107.495 34.1735C107.193 33.9892 106.955 33.7306 106.781 33.3978C106.607 33.0651 106.52 32.6862 106.52 32.2613ZM110.083 32.269C110.083 31.9515 110.019 31.6751 109.891 31.4396C109.763 31.2041 109.589 31.0249 109.369 30.902C109.154 30.774 108.916 30.71 108.654 30.71C108.393 30.71 108.155 30.7715 107.94 30.8943C107.725 31.0172 107.554 31.1964 107.426 31.4319C107.298 31.6674 107.234 31.9439 107.234 32.2613C107.234 32.5838 107.298 32.8654 107.426 33.106C107.554 33.3415 107.725 33.5233 107.94 33.6513C108.155 33.7741 108.393 33.8356 108.654 33.8356C108.916 33.8356 109.154 33.7741 109.369 33.6513C109.589 33.5233 109.763 33.3415 109.891 33.106C110.019 32.8654 110.083 32.5864 110.083 32.269Z" fill="#FDEDDC"/>
<path d="M104.476 32.1153C104.476 32.2484 104.468 32.3892 104.453 32.5377H101.089C101.115 32.9524 101.256 33.2775 101.512 33.513C101.773 33.7433 102.088 33.8585 102.456 33.8585C102.758 33.8585 103.009 33.7894 103.209 33.6512C103.414 33.5078 103.557 33.3184 103.639 33.0829H104.391C104.279 33.4874 104.053 33.8176 103.716 34.0736C103.378 34.3244 102.958 34.4499 102.456 34.4499C102.057 34.4499 101.698 34.3603 101.381 34.1811C101.069 34.0019 100.823 33.7485 100.644 33.4208C100.465 33.088 100.375 32.7041 100.375 32.2689C100.375 31.8337 100.462 31.4523 100.636 31.1246C100.81 30.797 101.053 30.5461 101.366 30.3721C101.683 30.1929 102.047 30.1033 102.456 30.1033C102.855 30.1033 103.209 30.1903 103.516 30.3644C103.823 30.5384 104.059 30.7791 104.222 31.0862C104.391 31.3883 104.476 31.7313 104.476 32.1153ZM103.754 31.9694C103.754 31.7032 103.695 31.4753 103.577 31.2859C103.46 31.0914 103.298 30.9455 103.094 30.8482C102.894 30.7458 102.671 30.6946 102.425 30.6946C102.072 30.6946 101.77 30.8072 101.519 31.0325C101.273 31.2578 101.133 31.57 101.097 31.9694H103.754Z" fill="#FDEDDC"/>
<path d="M96.7309 34.4499C96.4084 34.4499 96.1191 34.3961 95.8632 34.2886C95.6072 34.1759 95.405 34.0224 95.2565 33.8278C95.108 33.6281 95.0261 33.4003 95.0107 33.1443H95.7326C95.7531 33.3542 95.8504 33.5258 96.0244 33.6589C96.2036 33.792 96.4366 33.8585 96.7233 33.8585C96.9895 33.8585 97.1994 33.7997 97.353 33.6819C97.5066 33.5642 97.5834 33.4157 97.5834 33.2365C97.5834 33.0522 97.5014 32.9165 97.3376 32.8295C97.1738 32.7373 96.9204 32.6477 96.5774 32.5607C96.2651 32.4788 96.0091 32.3969 95.8094 32.315C95.6149 32.2279 95.4459 32.1025 95.3026 31.9387C95.1643 31.7697 95.0952 31.5496 95.0952 31.2782C95.0952 31.0632 95.1592 30.8661 95.2872 30.6869C95.4152 30.5077 95.5969 30.3669 95.8324 30.2645C96.0679 30.157 96.3367 30.1033 96.6388 30.1033C97.1047 30.1033 97.481 30.221 97.7677 30.4565C98.0544 30.692 98.208 31.0146 98.2284 31.4241H97.5296C97.5142 31.204 97.4247 31.0274 97.2608 30.8943C97.1021 30.7611 96.8871 30.6946 96.6157 30.6946C96.3649 30.6946 96.1652 30.7483 96.0168 30.8559C95.8683 30.9634 95.794 31.1042 95.794 31.2782C95.794 31.4165 95.8376 31.5317 95.9246 31.6238C96.0167 31.7108 96.1294 31.7825 96.2625 31.8388C96.4007 31.89 96.5902 31.9489 96.8308 32.0155C97.1328 32.0974 97.3786 32.1793 97.568 32.2612C97.7574 32.338 97.9187 32.4557 98.0518 32.6145C98.19 32.7732 98.2617 32.9805 98.2668 33.2365C98.2668 33.4669 98.2028 33.6742 98.0749 33.8585C97.9469 34.0428 97.7651 34.1887 97.5296 34.2963C97.2992 34.3987 97.033 34.4499 96.7309 34.4499Z" fill="#FDEDDC"/>
<path d="M92.6788 30.1726V34.381H91.98V33.7589C91.8469 33.9739 91.66 34.1429 91.4194 34.2658C91.1839 34.3835 90.9228 34.4424 90.6361 34.4424C90.3084 34.4424 90.014 34.3758 89.7529 34.2427C89.4918 34.1045 89.2845 33.8997 89.1309 33.6284C88.9824 33.357 88.9082 33.0268 88.9082 32.6377V30.1726H89.5994V32.5456C89.5994 32.9603 89.7043 33.2802 89.9142 33.5055C90.1241 33.7256 90.4108 33.8357 90.7743 33.8357C91.148 33.8357 91.4424 33.7205 91.6575 33.4901C91.8725 33.2598 91.98 32.9244 91.98 32.4841V30.1726H92.6788Z" fill="#FDEDDC"/>
<path d="M82.6387 32.2689C82.6387 31.8337 82.7257 31.4549 82.8998 31.1323C83.0738 30.8047 83.3145 30.5512 83.6216 30.3721C83.9339 30.1929 84.2898 30.1033 84.6891 30.1033C85.2062 30.1033 85.6311 30.2287 85.9639 30.4796C86.3018 30.7304 86.5245 31.0786 86.632 31.524H85.8794C85.8077 31.268 85.6669 31.0658 85.457 30.9173C85.2522 30.7688 84.9963 30.6946 84.6891 30.6946C84.2898 30.6946 83.9672 30.8328 83.7215 31.1093C83.4757 31.3806 83.3529 31.7672 83.3529 32.2689C83.3529 32.7757 83.4757 33.1674 83.7215 33.4438C83.9672 33.7203 84.2898 33.8585 84.6891 33.8585C84.9963 33.8585 85.2522 33.7869 85.457 33.6435C85.6618 33.5002 85.8026 33.2954 85.8794 33.0291H86.632C86.5194 33.4592 86.2941 33.8048 85.9562 34.0659C85.6183 34.3219 85.1959 34.4499 84.6891 34.4499C84.2898 34.4499 83.9339 34.3603 83.6216 34.1811C83.3145 34.0019 83.0738 33.7485 82.8998 33.4208C82.7257 33.0931 82.6387 32.7092 82.6387 32.2689Z" fill="#FDEDDC"/>
<path d="M78.4402 34.4499C78.046 34.4499 77.6877 34.3603 77.3651 34.1811C77.0477 34.0019 76.7968 33.7485 76.6125 33.4208C76.4333 33.088 76.3438 32.7041 76.3438 32.2689C76.3438 31.8388 76.4359 31.46 76.6202 31.1323C76.8096 30.7995 77.0656 30.5461 77.3882 30.3721C77.7107 30.1929 78.0716 30.1033 78.471 30.1033C78.8703 30.1033 79.2312 30.1929 79.5538 30.3721C79.8763 30.5461 80.1297 30.797 80.314 31.1246C80.5035 31.4523 80.5982 31.8337 80.5982 32.2689C80.5982 32.7041 80.5009 33.088 80.3064 33.4208C80.1169 33.7485 79.8584 34.0019 79.5307 34.1811C79.2031 34.3603 78.8396 34.4499 78.4402 34.4499ZM78.4402 33.8355C78.6911 33.8355 78.9266 33.7766 79.1468 33.6589C79.3669 33.5411 79.5435 33.3645 79.6766 33.129C79.8149 32.8935 79.884 32.6068 79.884 32.2689C79.884 31.931 79.8174 31.6443 79.6843 31.4088C79.5512 31.1733 79.3771 30.9992 79.1621 30.8866C78.9471 30.7688 78.7141 30.7099 78.4633 30.7099C78.2073 30.7099 77.9718 30.7688 77.7568 30.8866C77.5469 30.9992 77.3779 31.1733 77.2499 31.4088C77.1219 31.6443 77.0579 31.931 77.0579 32.2689C77.0579 32.6119 77.1194 32.9012 77.2422 33.1367C77.3702 33.3722 77.5392 33.5488 77.7491 33.6665C77.959 33.7792 78.1894 33.8355 78.4402 33.8355Z" fill="#FDEDDC"/>
<path d="M74.3792 29.0283V29.5966H72.0523V31.4013H73.9415V31.9696H72.0523V34.3809H71.3535V29.0283H74.3792Z" fill="#FDEDDC"/>
<path d="M65.8397 30.1726L63.3055 36.3623H62.5836L63.413 34.3349L61.7158 30.1726H62.4914L63.8123 33.5823L65.1178 30.1726H65.8397Z" fill="#FDEDDC"/>
<path d="M55.3809 32.2612C55.3809 31.8312 55.4679 31.4549 55.642 31.1323C55.816 30.8047 56.0541 30.5512 56.3562 30.3721C56.6633 30.1929 57.0038 30.1033 57.3775 30.1033C57.7461 30.1033 58.0661 30.1826 58.3375 30.3413C58.6088 30.5 58.811 30.6997 58.9441 30.9403V30.1724H59.6506V34.3807H58.9441V33.5974C58.8059 33.8432 58.5986 34.048 58.3221 34.2118C58.0508 34.3705 57.7333 34.4499 57.3698 34.4499C56.9961 34.4499 56.6582 34.3577 56.3562 34.1734C56.0541 33.9891 55.816 33.7305 55.642 33.3978C55.4679 33.065 55.3809 32.6861 55.3809 32.2612ZM58.9441 32.2689C58.9441 31.9515 58.8801 31.675 58.7521 31.4395C58.6242 31.204 58.4501 31.0248 58.2299 30.9019C58.0149 30.7739 57.7769 30.7099 57.5158 30.7099C57.2547 30.7099 57.0166 30.7714 56.8016 30.8943C56.5865 31.0171 56.415 31.1963 56.287 31.4318C56.159 31.6673 56.0951 31.9438 56.0951 32.2612C56.0951 32.5837 56.159 32.8653 56.287 33.1059C56.415 33.3414 56.5865 33.5232 56.8016 33.6512C57.0166 33.7741 57.2547 33.8355 57.5158 33.8355C57.7769 33.8355 58.0149 33.7741 58.2299 33.6512C58.4501 33.5232 58.6242 33.3414 58.7521 33.1059C58.8801 32.8653 58.9441 32.5863 58.9441 32.2689Z" fill="#FDEDDC"/>
<path d="M52.3154 30.7483V33.2287C52.3154 33.4335 52.3589 33.5794 52.4459 33.6665C52.5329 33.7484 52.684 33.7893 52.899 33.7893H53.4135V34.3807H52.7838C52.3947 34.3807 52.1029 34.2911 51.9084 34.1119C51.7138 33.9327 51.6165 33.6383 51.6165 33.2287V30.7483H51.0713V30.1723H51.6165V29.1125H52.3154V30.1723H53.4135V30.7483H52.3154Z" fill="#FDEDDC"/>
<path d="M47.2707 34.4347C46.9174 34.4347 46.6 34.3733 46.3184 34.2504C46.042 34.1224 45.8244 33.9483 45.6657 33.7282C45.507 33.5029 45.425 33.2444 45.4199 32.9526H46.1648C46.1904 33.2034 46.2928 33.4159 46.472 33.5899C46.6563 33.7589 46.9225 33.8434 47.2707 33.8434C47.6035 33.8434 47.8646 33.7615 48.054 33.5976C48.2485 33.4287 48.3458 33.2137 48.3458 32.9526C48.3458 32.7478 48.2895 32.5814 48.1769 32.4534C48.0642 32.3254 47.9234 32.2281 47.7545 32.1616C47.5855 32.095 47.3577 32.0233 47.071 31.9465C46.7178 31.8544 46.4336 31.7622 46.2186 31.6701C46.0087 31.5779 45.8269 31.4346 45.6733 31.24C45.5249 31.0404 45.4506 30.7741 45.4506 30.4414C45.4506 30.1495 45.5249 29.891 45.6733 29.6657C45.8218 29.4405 46.0292 29.2664 46.2954 29.1435C46.5667 29.0207 46.8765 28.9592 47.2246 28.9592C47.7263 28.9592 48.1359 29.0847 48.4533 29.3355C48.7758 29.5864 48.9576 29.9192 48.9986 30.3339H48.2306C48.205 30.1291 48.0975 29.9499 47.9081 29.7963C47.7186 29.6376 47.4678 29.5582 47.1555 29.5582C46.8637 29.5582 46.6256 29.635 46.4413 29.7886C46.257 29.9371 46.1648 30.147 46.1648 30.4183C46.1648 30.6129 46.2186 30.7716 46.3261 30.8945C46.4387 31.0173 46.5744 31.112 46.7331 31.1786C46.8969 31.24 47.1248 31.3117 47.4166 31.3936C47.7698 31.4909 48.054 31.5882 48.269 31.6854C48.484 31.7776 48.6683 31.9235 48.8219 32.1232C48.9755 32.3177 49.0523 32.5839 49.0523 32.9218C49.0523 33.1829 48.9832 33.4287 48.845 33.6591C48.7067 33.8894 48.5019 34.0763 48.2306 34.2197C47.9593 34.363 47.6393 34.4347 47.2707 34.4347Z" fill="#FDEDDC"/>
<path fill-rule="evenodd" clip-rule="evenodd" d="M11.4935 20.4698L7.93509 24.0282H4.04248L2.49718 20.4698L4.04248 16.9113H7.93509L11.4935 20.4698ZM13.9138 37.6888L19.7608 40.2305L25.6078 37.6442V34.584L27.8032 36.7794L33.7333 34.4422L36.0704 28.5122L33.875 26.3168H36.9798L39.5215 20.4698L36.9798 14.6227H33.875L36.0704 12.4273L33.7333 6.49727L27.8032 4.16008L25.6078 6.3555V3.25073L19.7608 0.708984L13.9138 3.25073V6.3555L11.7183 4.16008L5.78828 6.49727L3.4511 12.4273L5.64651 14.6227H2.54174L0 20.4698L2.54174 26.3168H5.64651L3.4511 28.5122L5.78828 34.4422L11.7183 36.7794L13.9138 34.584V37.6888ZM16.2023 24.0282V21.9442L14.7279 20.4698L16.2023 18.9953V16.9113H18.2864L19.7608 15.4369L21.2352 16.9113H23.3192V18.9953L24.7936 20.4698L23.3192 21.9442V24.0282H21.2352L19.7608 25.5026L18.2864 24.0282H16.2023ZM21.379 27.1188L22.183 26.3147H23.3192V29.057L21.381 27.1188H21.379ZM25.6078 22.892L26.4118 22.088L28.35 24.0262H25.6078V22.89V22.892ZM25.6078 31.3476V26.3168H30.6386L33.391 29.0691L31.9692 32.6782L28.3602 34.1L25.6078 31.3476ZM31.5864 24.0282L28.028 20.4698L31.5864 16.9113H35.4791L37.0264 20.4698L35.4791 24.0282H31.5864ZM16.2023 32.2954L19.7608 28.737L23.3192 32.2954V36.188L19.7608 37.7354L16.2023 36.188V32.2954ZM26.4098 18.8515L25.6058 18.0475V16.9113H28.348L26.4098 18.8495V18.8515ZM22.183 14.6227L21.379 13.8187L23.3172 11.8805V14.6227H22.181H22.183ZM25.6078 14.6227V9.59191L28.3602 6.83954L31.9692 8.2613L33.391 11.8704L30.6386 14.6227H25.6078ZM23.3192 8.64408L19.7608 12.2025L16.2023 8.64408V4.75147L19.7608 3.20617L23.3192 4.75147V8.64408ZM13.9138 18.0475L13.1097 18.8515L11.1715 16.9133H13.9138V18.0495V18.0475ZM18.1426 13.8207L17.3385 14.6248H16.2023V11.8825L18.1405 13.8207H18.1426ZM13.9138 9.59191V14.6227H8.88293L6.13056 11.8704L7.55231 8.2613L11.1614 6.83954L13.9138 9.59191ZM13.1117 22.088L13.9158 22.892V24.0282H11.1735L13.1117 22.09V22.088ZM8.88293 26.3168H13.9138V31.3476L11.1614 34.1L7.55231 32.6782L6.13056 29.0691L8.88293 26.3168ZM17.3385 26.3168L18.1426 27.1208L16.2044 29.059V26.3168H17.3405H17.3385Z" fill="#CA9C77"/>
</svg>
