<svg width="963" height="305" viewBox="0 0 963 305" fill="none" xmlns="http://www.w3.org/2000/svg">
<g filter="url(#filter0_f_1587_12)">
<circle cx="481.353" cy="-175.815" r="290.755" fill="#FDEDDC" fill-opacity="0.2"/>
</g>
<path fill-rule="evenodd" clip-rule="evenodd" d="M392.304 27.3875L355.712 63.9793H315.684L299.793 27.3875L315.684 -9.20439H355.712L392.304 27.3875ZM417.191 204.453L477.317 230.59L537.442 203.995V172.526L560.018 195.102L620.997 171.068L645.031 110.089L622.455 87.513H654.382L680.519 27.3875L654.382 -32.7381H622.455L645.031 -55.3139L620.997 -116.293L560.018 -140.327L537.442 -117.751V-149.678L477.317 -175.815L417.191 -149.678V-117.751L394.615 -140.327L333.636 -116.293L309.602 -55.3139L332.178 -32.7381H300.251L274.114 27.3875L300.251 87.513H332.178L309.602 110.089L333.636 171.068L394.615 195.102L417.191 172.526V204.453ZM440.725 63.9793V42.549L425.563 27.3875L440.725 12.2259V-9.20439H462.155L477.317 -24.366L492.478 -9.20439H513.908V12.2259L529.07 27.3875L513.908 42.549V63.9793H492.478L477.317 79.1408L462.155 63.9793H440.725ZM493.957 95.7602L502.225 87.4922H513.908V115.691L493.978 95.7602H493.957ZM537.442 52.2957L545.71 44.0277L565.641 63.9585H537.442V52.2749V52.2957ZM537.442 139.246V87.513H589.175L617.478 115.816L602.858 152.928L565.745 167.549L537.442 139.246ZM598.922 63.9793L562.33 27.3875L598.922 -9.20439H638.95L654.861 27.3875L638.95 63.9793H598.922ZM440.725 148.992L477.317 112.4L513.908 148.992V189.02L477.317 204.932L440.725 189.02V148.992ZM545.689 10.7472L537.421 2.47917V-9.20439H565.62L545.689 10.7264V10.7472ZM502.225 -32.7381L493.957 -41.0062L513.888 -60.937V-32.7381H502.204H502.225ZM537.442 -32.7381V-84.4707L565.745 -112.774L602.858 -98.1536L617.478 -61.0411L589.175 -32.7381H537.442ZM513.908 -94.2174L477.317 -57.6256L440.725 -94.2174V-134.246L477.317 -150.136L513.908 -134.246V-94.2174ZM417.191 2.47917L408.923 10.7472L388.992 -9.18356H417.191V2.5V2.47917ZM460.676 -40.9854L452.408 -32.7173H440.725V-60.9161L460.656 -40.9854H460.676ZM417.191 -84.4707V-32.7381H365.458L337.156 -61.0411L351.776 -98.1536L388.888 -112.774L417.191 -84.4707ZM408.944 44.0277L417.212 52.2957V63.9793H389.013L408.944 44.0485V44.0277ZM365.458 87.513H417.191V139.246L388.888 167.549L351.776 152.928L337.156 115.816L365.458 87.513ZM452.408 87.513L460.676 95.7811L440.746 115.712V87.513H452.429H452.408Z" fill="#CA9C77" fill-opacity="0.06"/>
<defs>
<filter id="filter0_f_1587_12" x="0.598633" y="-656.569" width="961.509" height="961.509" filterUnits="userSpaceOnUse" color-interpolation-filters="sRGB">
<feFlood flood-opacity="0" result="BackgroundImageFix"/>
<feBlend mode="normal" in="SourceGraphic" in2="BackgroundImageFix" result="shape"/>
<feGaussianBlur stdDeviation="95" result="effect1_foregroundBlur_1587_12"/>
</filter>
</defs>
</svg>
